<svg width="24" height="24" viewBox="0 0 24 24" fill="none" xmlns="http://www.w3.org/2000/svg">
<path d="M19.367 17.5H13C12.858 17.5 12.7393 17.452 12.644 17.356C12.5487 17.26 12.5007 17.141 12.5 16.999C12.4993 16.857 12.5473 16.7383 12.644 16.643C12.7407 16.5477 12.8593 16.5 13 16.5H19.367L17.64 14.773C17.5467 14.6797 17.4967 14.566 17.49 14.432C17.4833 14.298 17.5367 14.1747 17.65 14.062C17.754 13.958 17.8707 13.906 18 13.906C18.1293 13.906 18.2473 13.9593 18.354 14.066L20.723 16.434C20.885 16.596 20.966 16.7847 20.966 17C20.966 17.2153 20.885 17.404 20.723 17.566L18.353 19.935C18.2563 20.0323 18.142 20.0833 18.01 20.088C17.878 20.092 17.7553 20.0387 17.642 19.928C17.5387 19.818 17.486 19.7003 17.484 19.575C17.482 19.449 17.536 19.331 17.646 19.221L19.367 17.5ZM5.616 20C5.17133 20 4.791 19.8417 4.475 19.525C4.159 19.2083 4.00067 18.8287 4 18.386V5.61499C4 5.17099 4.15833 4.79099 4.475 4.47499C4.79167 4.15899 5.17167 4.00066 5.615 3.99999H10.252C10.3453 3.60932 10.553 3.28099 10.875 3.01499C11.197 2.74832 11.572 2.61499 12 2.61499C12.436 2.61499 12.814 2.74832 13.134 3.01499C13.454 3.28032 13.6607 3.60866 13.754 3.99999H18.384C18.8287 3.99999 19.2093 4.15832 19.526 4.47499C19.8427 4.79166 20.0007 5.17166 20 5.61499V11.212C20 11.3533 19.952 11.472 19.856 11.568C19.76 11.664 19.641 11.712 19.499 11.712C19.357 11.712 19.2383 11.664 19.143 11.568C19.0477 11.472 19 11.3533 19 11.212V5.61599C19 5.46199 18.936 5.32066 18.808 5.19199C18.68 5.06332 18.5387 4.99932 18.384 4.99999H16V6.42299C16 6.65166 15.9233 6.84366 15.77 6.99899C15.6167 7.15432 15.4267 7.23166 15.2 7.23099H8.8C8.57333 7.23099 8.38333 7.15366 8.23 6.99899C8.07667 6.84432 8 6.65232 8 6.42299V4.99999H5.616C5.462 4.99999 5.32067 5.06399 5.192 5.19199C5.06333 5.31999 4.99933 5.46132 5 5.61599V18.385C5 18.5383 5.064 18.6793 5.192 18.808C5.32 18.9367 5.461 19.0007 5.615 19H10C10.142 19 10.2607 19.048 10.356 19.144C10.4513 19.24 10.4993 19.359 10.5 19.501C10.5007 19.643 10.4527 19.7617 10.356 19.857C10.2593 19.9523 10.1407 20 10 20H5.616ZM12.003 5.22999C12.233 5.22999 12.4247 5.15266 12.578 4.99799C12.7313 4.84266 12.808 4.64999 12.808 4.41999C12.808 4.18999 12.7303 3.99832 12.575 3.84499C12.4197 3.69166 12.227 3.61499 11.997 3.61499C11.767 3.61499 11.5753 3.69299 11.422 3.84899C11.2687 4.00499 11.192 4.19766 11.192 4.42699C11.192 4.65632 11.27 4.84766 11.426 5.00099C11.582 5.15432 11.7743 5.22999 12.003 5.22999Z" fill="#474744"/>
</svg>
